<svg width="19" height="19" viewBox="0 0 19 19" fill="none" xmlns="http://www.w3.org/2000/svg">
<g clip-path="url(#clip0_683_2360)">
<path d="M9.50016 7.12565C8.87027 7.12565 8.26618 7.37587 7.82078 7.82127C7.37539 8.26667 7.12516 8.87076 7.12516 9.50065C7.12516 10.1305 7.37539 10.7346 7.82078 11.18C8.26618 11.6254 8.87027 11.8757 9.50016 11.8757C10.1301 11.8757 10.7341 11.6254 11.1795 11.18C11.6249 10.7346 11.8752 10.1305 11.8752 9.50065C11.8752 8.87076 11.6249 8.26667 11.1795 7.82127C10.7341 7.37587 10.1301 7.12565 9.50016 7.12565ZM9.50016 5.54232C10.55 5.54232 11.5568 5.95936 12.2991 6.70169C13.0415 7.44402 13.4585 8.45084 13.4585 9.50065C13.4585 10.5505 13.0415 11.5573 12.2991 12.2996C11.5568 13.0419 10.55 13.459 9.50016 13.459C8.45035 13.459 7.44353 13.0419 6.7012 12.2996C5.95887 11.5573 5.54183 10.5505 5.54183 9.50065C5.54183 8.45084 5.95887 7.44402 6.7012 6.70169C7.44353 5.95936 8.45035 5.54232 9.50016 5.54232ZM14.646 5.3444C14.646 5.60686 14.5417 5.85856 14.3562 6.04414C14.1706 6.22973 13.9189 6.33398 13.6564 6.33398C13.394 6.33398 13.1423 6.22973 12.9567 6.04414C12.7711 5.85856 12.6668 5.60686 12.6668 5.3444C12.6668 5.08195 12.7711 4.83024 12.9567 4.64466C13.1423 4.45908 13.394 4.35482 13.6564 4.35482C13.9189 4.35482 14.1706 4.45908 14.3562 4.64466C14.5417 4.83024 14.646 5.08195 14.646 5.3444ZM9.50016 3.16732C7.54158 3.16732 7.22175 3.17286 6.31054 3.21323C5.68987 3.24253 5.27345 3.32565 4.88712 3.47607C4.54354 3.60907 4.29575 3.76819 4.03212 4.03261C3.78434 4.27201 3.59382 4.56428 3.47479 4.88761C3.32437 5.27553 3.24125 5.69115 3.21275 6.31103C3.17158 7.18503 3.16683 7.49061 3.16683 9.50065C3.16683 11.4592 3.17237 11.7791 3.21275 12.6903C3.24204 13.3102 3.32516 13.7274 3.47479 14.1129C3.60937 14.4573 3.7677 14.7051 4.03054 14.9679C4.29733 15.2339 4.54512 15.393 4.88554 15.5244C5.27662 15.6757 5.69304 15.7596 6.31054 15.7881C7.18454 15.8292 7.49012 15.834 9.50016 15.834C11.4587 15.834 11.7786 15.8284 12.6898 15.7881C13.3089 15.7588 13.7261 15.6757 14.1124 15.526C14.4552 15.3922 14.7046 15.2331 14.9674 14.9703C15.2342 14.7035 15.3933 14.4557 15.5247 14.1153C15.6752 13.725 15.7591 13.3078 15.7876 12.6903C15.8287 11.8163 15.8335 11.5107 15.8335 9.50065C15.8335 7.54207 15.828 7.22224 15.7876 6.31103C15.7583 5.69194 15.6752 5.27394 15.5247 4.88761C15.4054 4.56461 15.2153 4.27245 14.9682 4.03261C14.7289 3.7847 14.4366 3.59416 14.1132 3.47528C13.7253 3.32486 13.3089 3.24173 12.6898 3.21323C11.8158 3.17207 11.5102 3.16732 9.50016 3.16732ZM9.50016 1.58398C11.6511 1.58398 11.9195 1.5919 12.7634 1.63148C13.6065 1.67107 14.1805 1.80328 14.6856 1.99961C15.2081 2.20069 15.6482 2.47303 16.0884 2.9124C16.491 3.30815 16.8025 3.78687 17.0012 4.31523C17.1967 4.81953 17.3297 5.39428 17.3693 6.2374C17.4065 7.08132 17.4168 7.34969 17.4168 9.50065C17.4168 11.6516 17.4089 11.92 17.3693 12.7639C17.3297 13.607 17.1967 14.181 17.0012 14.6861C16.803 15.2147 16.4915 15.6936 16.0884 16.0889C15.6926 16.4913 15.2139 16.8028 14.6856 17.0017C14.1813 17.1972 13.6065 17.3302 12.7634 17.3698C11.9195 17.407 11.6511 17.4173 9.50016 17.4173C7.34921 17.4173 7.08083 17.4094 6.23691 17.3698C5.39379 17.3302 4.81983 17.1972 4.31475 17.0017C3.78617 16.8034 3.30737 16.4918 2.91191 16.0889C2.50928 15.6932 2.19778 15.2145 1.99912 14.6861C1.80279 14.1818 1.67058 13.607 1.631 12.7639C1.59379 11.92 1.5835 11.6516 1.5835 9.50065C1.5835 7.34969 1.59141 7.08132 1.631 6.2374C1.67058 5.39348 1.80279 4.82032 1.99912 4.31523C2.19722 3.78654 2.5088 3.3077 2.91191 2.9124C3.30749 2.50963 3.78625 2.1981 4.31475 1.99961C4.81983 1.80328 5.393 1.67107 6.23691 1.63148C7.08083 1.59428 7.34921 1.58398 9.50016 1.58398Z" fill="#E0BEA2"/>
</g>
<defs>
<clipPath id="clip0_683_2360">
<rect width="19" height="19" fill="white"/>
</clipPath>
</defs>
</svg>
