<svg width="19" height="19" viewBox="0 0 19 19" fill="none" xmlns="http://www.w3.org/2000/svg">
<g clip-path="url(#clip0_683_2363)">
<path d="M9.50016 15.834C11.1799 15.834 12.7908 15.1667 13.9785 13.979C15.1662 12.7913 15.8335 11.1804 15.8335 9.50065C15.8335 7.82095 15.1662 6.21004 13.9785 5.02231C12.7908 3.83458 11.1799 3.16732 9.50016 3.16732C7.82046 3.16732 6.20955 3.83458 5.02182 5.02231C3.83409 6.21004 3.16683 7.82095 3.16683 9.50065C3.16683 11.1804 3.83409 12.7913 5.02182 13.979C6.20955 15.1667 7.82046 15.834 9.50016 15.834ZM9.50016 17.4173C5.12779 17.4173 1.5835 13.873 1.5835 9.50065C1.5835 5.12828 5.12779 1.58398 9.50016 1.58398C13.8725 1.58398 17.4168 5.12828 17.4168 9.50065C17.4168 13.873 13.8725 17.4173 9.50016 17.4173ZM7.03808 10.4269L5.0605 9.81019C4.633 9.67957 4.63062 9.38507 5.15629 9.17369L12.8616 6.19703C13.3089 6.01494 13.5622 6.24532 13.4173 6.82244L12.1055 13.0133C12.0137 13.4542 11.7485 13.5595 11.3804 13.3561L9.36083 11.8614L8.41954 12.7702C8.32296 12.8637 8.24458 12.9436 8.09575 12.9634C7.9477 12.984 7.82579 12.9397 7.73633 12.6942L7.04758 10.4214L7.03808 10.4269Z" fill="#E0BEA2"/>
</g>
<defs>
<clipPath id="clip0_683_2363">
<rect width="19" height="19" fill="white"/>
</clipPath>
</defs>
</svg>
